<?xml version="1.0" encoding="UTF-8"?>
<svg version="1.1" xmlns="http://www.w3.org/2000/svg" width="520" height="520">
<path d="M0 0 C171.6 0 343.2 0 520 0 C520 171.6 520 343.2 520 520 C348.4 520 176.8 520 0 520 C0 348.4 0 176.8 0 0 Z " fill="#FEFEFE" transform="translate(0,0)"/>
<path d="M0 0 C0.8593364 -0.00043808 1.71867279 -0.00087616 2.60404968 -0.00132751 C5.42320066 0.00074997 8.24174489 0.0240316 11.06079102 0.04760742 C13.0237648 0.05320708 14.9867428 0.05747543 16.94972229 0.06047058 C22.1003693 0.07189022 27.25075997 0.10133258 32.40130615 0.13458252 C37.66341688 0.1653456 42.92556928 0.17898923 48.18774414 0.1940918 C58.50100741 0.22620506 68.81408097 0.27736649 79.12719727 0.34057617 C77.78000465 4.53117436 76.2771719 8.07846098 73.99438477 11.84838867 C73.36121338 12.90324463 72.72804199 13.95810059 72.07568359 15.04492188 C71.7384024 15.6012027 71.40112122 16.15748352 71.05361938 16.73062134 C69.23306899 19.73471708 67.43259096 22.75080427 65.63110352 25.76635742 C65.25779404 26.39046005 64.88448456 27.01456268 64.49986267 27.65757751 C60.55407742 34.27027628 56.7412677 40.95677673 52.93969727 47.65307617 C46.134595 59.62850281 39.18243647 71.51094953 32.12719727 83.34057617 C28.02535398 81.97329508 26.96549605 79.2412823 24.89672852 75.68041992 C24.50144455 75.01595352 24.10616058 74.35148712 23.69889832 73.66688538 C22.43747108 71.54210457 21.18850809 69.4102917 19.93969727 67.27807617 C19.08699214 65.83684112 18.2334862 64.39607956 17.37915039 62.95581055 C15.28583166 59.4228275 13.20366294 55.88348847 11.12719727 52.34057617 C8.5678537 54.67298053 6.94971243 57.11392259 5.22875977 60.11010742 C4.67406006 61.06941162 4.11936035 62.02871582 3.54785156 63.01708984 C2.65900269 64.56940308 2.65900269 64.56940308 1.75219727 66.15307617 C0.48063429 68.35392784 -0.79151303 70.55444198 -2.06420898 72.75463867 C-2.70503418 73.86484375 -3.34585938 74.97504883 -4.00610352 76.11889648 C-6.70277576 80.77300149 -9.44145877 85.4016768 -12.18530273 90.02807617 C-17.18602949 98.47381635 -22.16105065 106.93440369 -27.12280273 115.40307617 C-27.48024567 116.01315521 -27.8376886 116.62323425 -28.20596313 117.25180054 C-30.03198899 120.36865986 -31.85772733 123.48568748 -33.68334961 126.6027832 C-36.8923679 132.08161667 -40.10383549 137.5590142 -43.31515503 143.03649902 C-44.37358848 144.84191646 -45.4319278 146.64738905 -46.49023438 148.45288086 C-49.70527758 153.9377665 -52.92063557 159.4224667 -56.13729858 164.90640259 C-63.62153766 177.66597402 -71.09876934 190.42946892 -78.54516602 203.21118164 C-81.80266501 208.80014728 -85.06950995 214.38350642 -88.34545898 219.96166992 C-88.7270517 220.61164948 -89.10864441 221.26162903 -89.50180054 221.93130493 C-91.36699485 225.10821596 -93.23322366 228.2845104 -95.10131836 231.4597168 C-95.78690928 232.62700864 -96.4724581 233.79432521 -97.15795898 234.96166992 C-97.75487549 235.97672607 -98.35179199 236.99178223 -98.96679688 238.03759766 C-101.31735455 242.11095424 -103.58886811 246.22949385 -105.87280273 250.34057617 C-23.37280273 250.01057617 59.12719727 249.68057617 144.12719727 249.34057617 C131.15372968 227.13604361 131.15372968 227.13604361 117.83813477 205.16088867 C115.77252877 201.12549604 115.71754871 198.76957096 117.12719727 194.34057617 C119.09414545 190.32210403 121.35097987 186.52717763 123.68969727 182.71557617 C124.28588867 181.69206055 124.88208008 180.66854492 125.49633789 179.61401367 C129.15109307 173.59718199 132.47660816 169.06042988 139.12719727 166.34057617 C143.94835183 165.24113441 147.94023938 165.76992334 152.37719727 167.90307617 C158.90505755 173.68913415 163.03779467 180.284924 167.18969727 187.90307617 C168.33629821 189.96920061 169.48478379 192.03428012 170.63500977 194.09838867 C171.21541016 195.1415625 171.79581055 196.18473633 172.39379883 197.25952148 C175.046562 201.97471461 177.79852129 206.62877108 180.56469727 211.27807617 C185.08313054 218.88075727 189.55981569 226.50570009 194.00219727 234.15307617 C197.72769519 240.56540362 201.48300279 246.95758803 205.31079102 253.30932617 C205.65704529 253.8841423 206.00329956 254.45895844 206.36004639 255.05119324 C208.04113825 257.8398062 209.72679774 260.62554107 211.41772461 263.40820312 C212.0192334 264.40295654 212.62074219 265.39770996 213.24047852 266.42260742 C213.77455322 267.30150635 214.30862793 268.18040527 214.85888672 269.0859375 C217.80128654 274.31655586 217.80538489 279.65801739 216.73657227 285.46166992 C214.94968126 291.33779225 211.09233972 294.88699926 206.12719727 298.34057617 C202.85990118 299.42967487 200.47276165 299.47038432 197.03320789 299.47759056 C195.1088142 299.48520238 195.1088142 299.48520238 193.14554387 299.49296796 C191.71355049 299.49356966 190.28155705 299.49406873 188.8495636 299.49447632 C187.33474829 299.49849051 185.81993406 299.50292866 184.30512112 299.50775588 C180.13156569 299.51973196 175.95802182 299.52537222 171.78445256 299.52993703 C167.28737002 299.53588916 162.79030135 299.54749994 158.29322815 299.55822754 C147.42746225 299.58275985 136.56169175 299.59737959 125.69590667 299.61028761 C122.62774685 299.61399883 119.5595875 299.61797212 116.49142814 299.62204027 C97.44481497 299.64727527 78.3982011 299.66933171 59.3515749 299.68176842 C54.93897308 299.68469819 50.52637129 299.68765984 46.11376953 299.69067383 C45.01701828 299.69141988 43.92026704 299.69216593 42.7902809 299.69293459 C25.01934601 299.70559109 7.2485111 299.73881771 -10.52237704 299.78047566 C-28.76091146 299.82287995 -46.99939468 299.84646168 -65.23797828 299.85168898 C-75.48090659 299.85510473 -85.72367862 299.86687924 -95.96655846 299.89979172 C-104.6890261 299.92777263 -113.41130543 299.93880014 -122.13381448 299.92759626 C-126.58448755 299.92240466 -131.03476615 299.92532878 -135.48538208 299.9500618 C-139.56115135 299.97252273 -143.63624209 299.9718394 -147.712023 299.95285793 C-149.18515731 299.95005346 -150.65833732 299.95568141 -152.13139804 299.97067086 C-160.17403332 300.04749561 -166.7587077 300.05842833 -172.87280273 294.34057617 C-177.45958496 289.23039492 -178.8127479 284.44035452 -178.46264648 277.57495117 C-177.29682435 271.18223113 -174.11524873 265.87271763 -170.87280273 260.34057617 C-170.43274902 259.58083496 -169.99269531 258.82109375 -169.53930664 258.03833008 C-166.92056267 253.52871867 -164.26462664 249.04239844 -161.58764648 244.56713867 C-157.89863125 238.3986214 -154.26443471 232.1987158 -150.6368103 225.99401855 C-144.6866272 215.8185729 -138.70327956 205.6635776 -132.68530273 195.52807617 C-126.57309783 185.23168231 -120.51894876 174.90299525 -114.49389648 164.55541992 C-110.50574003 157.70679263 -106.50440784 150.86592054 -102.49780273 144.02807617 C-102.14100433 143.41904449 -101.78420593 142.81001282 -101.41659546 142.18252563 C-96.22380894 133.32129662 -90.99493383 124.4822539 -85.74780273 115.65307617 C-79.85252739 105.73089433 -74.05359814 95.75698505 -68.30151367 85.7512207 C-63.89877139 78.09916652 -59.43845721 70.4837765 -54.93334961 62.89160156 C-51.44166315 57.00496268 -47.97746788 51.10303861 -44.52877808 45.19116211 C-40.66153756 38.56360824 -36.77229837 31.94919509 -32.87280273 25.34057617 C-32.07253662 23.97908447 -32.07253662 23.97908447 -31.25610352 22.59008789 C-29.93412813 20.35217561 -28.59569495 18.12544405 -27.24780273 15.90307617 C-26.89500244 15.30188965 -26.54220215 14.70070312 -26.17871094 14.08129883 C-20.00732841 4.07341483 -11.48259968 -0.15525842 0 0 Z " fill="#141E33" transform="translate(240.872802734375,155.659423828125)"/>
<path d="M0 0 C1.86599261 -0.00761181 1.86599261 -0.00761181 3.76968205 -0.0153774 C5.15775367 -0.01597909 6.54582533 -0.01647817 7.93389702 -0.01688576 C9.40262686 -0.02090007 10.8713556 -0.02533824 12.340083 -0.03016531 C16.38629049 -0.04214026 20.43248605 -0.0477814 24.47870779 -0.05234647 C28.8387941 -0.05829909 33.19886612 -0.0699098 37.55894279 -0.08063698 C48.09397304 -0.10516903 58.62900801 -0.11978944 69.16405803 -0.13269705 C72.1391408 -0.13640843 75.1142231 -0.14038171 78.0893054 -0.14444971 C96.56011205 -0.16968599 115.03091942 -0.19174135 133.5017395 -0.20417786 C137.78095439 -0.20710761 142.06016925 -0.21006926 146.33938408 -0.21308327 C147.40297625 -0.21382932 148.46656843 -0.21457537 149.56239067 -0.21534403 C166.7926966 -0.22799816 184.02289935 -0.26122152 201.25315703 -0.3028851 C218.93912025 -0.34530036 236.62503063 -0.36887243 254.31104457 -0.37409842 C264.24269208 -0.37751303 274.17417836 -0.38927408 284.10577583 -0.42220116 C292.5639803 -0.45019721 301.02199048 -0.46120295 309.48023768 -0.4500057 C313.79534657 -0.44481788 318.11004859 -0.44771361 322.42509842 -0.47247124 C326.37818199 -0.49496259 330.33056638 -0.49422525 334.28366219 -0.47526737 C335.71105447 -0.47246715 337.13849415 -0.47806727 338.56581022 -0.4930803 C348.15125202 -0.58771039 355.19389928 0.3831093 362.23684502 7.23467064 C362.68028252 7.88306908 363.12372002 8.53146751 363.58059502 9.19951439 C364.04465752 9.85049095 364.50872002 10.50146751 364.98684502 11.17217064 C367.40146958 15.50987119 367.6912671 20.25986042 367.08059502 25.13701439 C364.458773 33.07805179 359.64276311 40.24700284 355.39309502 47.38701439 C354.63607085 48.66730971 353.87957106 49.94791522 353.12356377 51.22881126 C351.55608295 53.883657 349.98637874 56.53716837 348.41506767 59.18974876 C345.13482801 64.73112779 341.8822336 70.28866447 338.629179 75.84602928 C336.86813002 78.85390708 335.1051454 81.86064988 333.34231377 84.86748314 C332.99224266 85.46467659 332.64217155 86.06187004 332.28149223 86.67716026 C330.12689373 90.35268641 327.97170037 94.02786317 325.81611443 97.70281029 C324.00826687 100.7849427 322.20065981 103.86721613 320.39309502 106.94951439 C320.03796837 107.55503136 319.68284172 108.16054832 319.31695366 108.78441429 C315.11010755 115.95806769 310.91260536 123.13705031 306.72854424 130.32402611 C300.61794018 140.82003084 294.44984918 151.28038846 288.25002861 161.72392845 C283.3562298 169.97216763 278.49039848 178.23637117 273.64309502 186.51201439 C273.2913018 187.11256645 272.93950859 187.71311852 272.57705498 188.33186913 C270.07729834 192.59970275 267.57879659 196.86827036 265.08059502 201.13701439 C262.22729607 206.01252283 259.37339789 210.88767921 256.51809502 215.76201439 C256.16694633 216.36151909 255.81579765 216.96102379 255.4540081 217.5786953 C249.63968 227.50278888 243.78320234 237.40123088 237.90872002 247.28984642 C232.83877201 255.83275931 227.82502769 264.40743111 222.85915947 273.01128197 C208.8457253 297.17925424 208.8457253 297.17925424 198.08059502 300.13701439 C195.12737206 300.40728147 192.1933117 300.3903545 189.2295208 300.36406517 C188.36057686 300.36435722 187.49163292 300.36464928 186.59635735 300.36495018 C183.73943727 300.36356277 180.88278173 300.34802932 178.02590752 300.33232689 C176.03908239 300.32859467 174.05225541 300.32574868 172.06542778 300.32375145 C166.84742932 300.31613148 161.62954297 300.29649702 156.41158867 300.27434349 C151.08252288 300.25384982 145.75343889 300.2447422 140.42434502 300.23467064 C129.97637921 300.2132496 119.52849645 300.1791334 109.08059502 300.13701439 C109.91156237 296.45830244 111.33307448 293.67635487 113.22122002 290.39482689 C113.87284111 289.2577932 114.5244622 288.12075951 115.19582939 286.94927025 C115.90719791 285.7200576 116.618792 284.49097548 117.33059502 283.26201439 C118.06327573 281.9894583 118.79569482 280.71675155 119.52786064 279.44389915 C124.85079029 270.20448181 130.23683564 261.00259678 135.69778252 251.84404564 C137.9042151 248.13939346 140.08016726 244.41881956 142.235075 240.68408775 C143.69331804 238.15922668 145.16012407 235.63939187 146.62771416 233.11995506 C147.34275949 231.88743312 148.05390637 230.65264074 148.76101494 229.41554832 C149.74541095 227.6944617 150.74469909 225.98191854 151.74465752 224.26982689 C152.31651787 223.27869896 152.88837822 222.28757103 153.47756767 221.26640892 C154.27106621 220.21235863 154.27106621 220.21235863 155.08059502 219.13701439 C156.07059502 219.13701439 157.06059502 219.13701439 158.08059502 219.13701439 C159.56259887 221.13259533 160.81144693 223.0539098 162.05715752 225.19170189 C162.42787376 225.8084478 162.79859001 226.42519371 163.18054008 227.06062889 C164.36594593 229.03842986 165.53573801 231.02498491 166.70559502 233.01201439 C167.50148043 234.34463715 168.29834362 235.67667647 169.09622002 237.00810814 C174.72452807 246.4248805 174.72452807 246.4248805 176.08059502 249.13701439 C176.74059502 249.13701439 177.40059502 249.13701439 178.08059502 249.13701439 C178.55625908 248.27205345 179.03192314 247.40709251 179.52200127 246.51592064 C184.26853131 237.95236508 189.21257354 229.52176588 194.26809502 221.13701439 C201.02254869 209.93304432 207.63871778 198.65465112 214.21340752 187.34453392 C217.61670722 181.4982275 221.03510551 175.66077413 224.45559502 169.82451439 C224.81296745 169.21466698 225.17033989 168.60481956 225.53854179 167.97649193 C231.34849072 158.06469094 237.19869047 148.17729919 243.06277275 138.29741478 C247.90553263 130.13309066 252.72010988 121.95269463 257.51809502 113.76201439 C257.8688308 113.16333549 258.21956657 112.5646566 258.58093071 111.94783592 C262.18965346 105.78734241 265.79534438 99.62507767 269.39948845 93.46190453 C270.87609022 90.93737938 272.35354486 88.41335392 273.83111382 85.88939476 C274.83692116 84.1705131 275.84148539 82.45090421 276.84597588 80.73125267 C282.84494979 70.48328843 288.96972675 60.32179483 295.08059502 50.13701439 C214.23059502 50.13701439 133.38059502 50.13701439 50.08059502 50.13701439 C61.55465111 70.08701097 61.55465111 70.08701097 73.32278252 89.84404564 C74.94579867 92.8844959 75.75922824 94.75706729 76.08059502 98.13701439 C75.18777275 100.41362572 75.18777275 100.41362572 73.76418877 102.71904564 C73.24663017 103.56918236 72.72907158 104.41931908 72.19582939 105.29521751 C71.36535088 106.60909447 71.36535088 106.60909447 70.51809502 107.94951439 C69.72822197 109.245989 69.72822197 109.245989 68.92239189 110.56865501 C58.80875383 126.97082201 58.80875383 126.97082201 52.08059502 130.13701439 C47.49244889 130.93063967 44.11735074 130.62489943 39.89309502 128.63701439 C32.88935109 122.41146424 28.57922747 114.08212391 24.01809502 106.01201439 C22.68326756 103.67079043 21.34458842 101.33177364 20.00637627 98.99248314 C19.67265007 98.40789833 19.33892387 97.82331352 18.99508476 97.22101402 C15.94983928 91.89146194 12.83905094 86.60253902 9.70559502 81.32451439 C4.51343698 72.5685034 -0.64801572 63.79497381 -5.79440498 55.01201439 C-6.14944099 54.40626579 -6.50447701 53.8005172 -6.87027168 53.17641258 C-8.56876293 50.27837977 -10.26610538 47.37969482 -11.96139717 44.47978783 C-13.2852189 42.21971711 -14.61413754 39.96262537 -15.9477253 37.70830345 C-16.58033272 36.63548119 -17.21294014 35.56265892 -17.86471748 34.45732689 C-18.42948799 33.50358177 -18.9942585 32.54983665 -19.57614326 31.56719017 C-22.5083625 26.26233553 -22.61777804 21.06506478 -21.91940498 15.13701439 C-19.57974051 8.73026961 -14.63672024 4.59371755 -8.91940498 1.13701439 C-5.70020914 0.06394911 -3.38564605 0.00731664 0 0 Z " fill="#276CE4" transform="translate(92.91940498352051,65.86298561096191)"/>
<path d="M0 0 C0.66 1.32 1.32 2.64 2 4 C82.85 4.33 163.7 4.66 247 5 C247.33 4.34 247.66 3.68 248 3 C248.33 3.99 248.66 4.98 249 6 C166.17 6 83.34 6 -2 6 C-1.34 4.02 -0.68 2.04 0 0 Z " fill="#EDEFF1" transform="translate(137,400)"/>
<path d="M0 0 C29.04 0 58.08 0 88 0 C87.67 0.99 87.34 1.98 87 3 C58.29 2.67 29.58 2.34 0 2 C0 1.34 0 0.68 0 0 Z " fill="#272B3C" transform="translate(232,156)"/>
<path d="M0 0 C0.66 1.32 1.32 2.64 2 4 C1.01 5.485 1.01 5.485 0 7 C-0.66 7 -1.32 7 -2 7 C-2.2475 7.70125 -2.495 8.4025 -2.75 9.125 C-4.16069949 12.36960883 -6.01112059 15.08135989 -8 18 C2.92716891 18.04644459 13.85431414 18.08193069 24.78156185 18.10362434 C29.85611915 18.11403886 34.93060866 18.12815535 40.00512695 18.15087891 C44.90696945 18.17269059 49.80874693 18.18458615 54.71063423 18.18975449 C56.57602524 18.19343533 58.44141289 18.20062295 60.30677605 18.21146011 C62.92977319 18.22608581 65.55250543 18.22797334 68.17553711 18.22705078 C68.9379924 18.23424133 69.70044769 18.24143188 70.48600769 18.24884033 C75.87253645 18.22848595 80.79068284 17.34909494 86 16 C83.81380025 18.51412972 82.29634458 19.48635956 79 20 C76.11690107 20.08982472 73.25871338 20.12619817 70.37597656 20.11352539 C69.50732468 20.11367142 68.63867279 20.11381744 67.74369812 20.1139679 C64.87598157 20.11327191 62.00833019 20.10549415 59.140625 20.09765625 C57.1509403 20.09579096 55.16125515 20.09436758 53.17156982 20.09336853 C47.93714121 20.08955212 42.70274039 20.07972929 37.46832275 20.06866455 C32.12602108 20.05843162 26.78371491 20.05386687 21.44140625 20.04882812 C10.9609253 20.03810626 0.48046496 20.02104032 -10 20 C-9.3090149 17.05637814 -8.43940043 14.73923456 -6.93359375 12.109375 C-6.53076172 11.40039062 -6.12792969 10.69140625 -5.71289062 9.9609375 C-5.29201172 9.23132813 -4.87113281 8.50171875 -4.4375 7.75 C-4.01275391 7.00492187 -3.58800781 6.25984375 -3.15039062 5.4921875 C-2.10453958 3.65901039 -1.05283808 1.82917323 0 0 Z " fill="#285FB8" transform="translate(212,346)"/>
<path d="M0 0 C0.85276722 2.41707906 1.12087895 3.64003451 0.29296875 6.10546875 C-0.07183594 6.79253906 -0.43664062 7.47960937 -0.8125 8.1875 C-1.16957031 8.88230469 -1.52664063 9.57710937 -1.89453125 10.29296875 C-3 12 -3 12 -5 13 C-6.01459471 14.6755307 -6.96329094 16.39133563 -7.875 18.125 C-9.6310023 21.43521461 -11.39703586 24.71699436 -13.3125 27.9375 C-15.06200576 30.78918995 -15.06200576 30.78918995 -15.5625 33.375 C-15.706875 33.91125 -15.85125 34.4475 -16 35 C-17.485 35.495 -17.485 35.495 -19 36 C-19.33 36.99 -19.66 37.98 -20 39 C-20.66 38.67 -21.32 38.34 -22 38 C-21.42668945 37.01942627 -21.42668945 37.01942627 -20.84179688 36.01904297 C-10.34153155 18.05531908 -10.34153155 18.05531908 0 0 Z " fill="#4E79C0" transform="translate(317,236)"/>
<path d="M0 0 C4.11176061 3.76148256 6.49656644 8.65437418 9.25 13.4375 C10.10078125 14.86932617 10.10078125 14.86932617 10.96875 16.33007812 C11.49984375 17.25111328 12.0309375 18.17214844 12.578125 19.12109375 C13.06700195 19.9608374 13.55587891 20.80058105 14.05957031 21.66577148 C15.14573779 24.36173391 15.05216401 25.33954304 14 28 C13.02235066 29.93904966 11.99784886 31.85490842 10.9375 33.75 C10.38964844 34.73484375 9.84179688 35.7196875 9.27734375 36.734375 C8.85582031 37.48203125 8.43429688 38.2296875 8 39 C6.72485508 35.17456525 7.47259587 33.66576992 9 30 C9.556875 29.484375 10.11375 28.96875 10.6875 28.4375 C11.120625 27.963125 11.55375 27.48875 12 27 C11.57166537 23.24817259 10.35356459 20.46442087 8.49609375 17.20703125 C8.00302734 16.32982422 7.50996094 15.45261719 7.00195312 14.54882812 C6.48568359 13.64583984 5.96941406 12.74285156 5.4375 11.8125 C4.41162243 10.00863349 3.3892961 8.20274118 2.37109375 6.39453125 C1.91661865 5.59893799 1.46214355 4.80334473 0.99389648 3.98364258 C0 2 0 2 0 0 Z " fill="#3C6CBF" transform="translate(154,137)"/>
<path d="M0 0 C0.66 0.99 1.32 1.98 2 3 C1.195625 3.99 0.39125 4.98 -0.4375 6 C-4.06690687 10.80185185 -6.89956319 15.99011417 -9.75170898 21.27539062 C-11.86456919 25.15123453 -13.98864885 28.72817333 -17 32 C-17.66 32 -18.32 32 -19 32 C-19 31.34 -19 30.68 -19 30 C-18.57275635 29.57589844 -18.1455127 29.15179688 -17.70532227 28.71484375 C-15.54864391 26.54612381 -14.23917916 24.21374774 -12.71484375 21.5625 C-12.10189453 20.50289063 -11.48894531 19.44328125 -10.85742188 18.3515625 C-10.22384766 17.24554688 -9.59027344 16.13953125 -8.9375 15 C-7.67651253 12.81207837 -6.41482536 10.62455982 -5.15234375 8.4375 C-4.3169104 6.98150391 -4.3169104 6.98150391 -3.46459961 5.49609375 C-2.36862224 3.628237 -1.20128844 1.80193266 0 0 Z " fill="#4374C2" transform="translate(288,286)"/>
<path d="M0 0 C2.14574154 4.29148308 2.67562363 7.33654909 2 12 C0.10374431 17.68876708 -2.94238938 22.86758217 -6 28 C-6.33 27.01 -6.66 26.02 -7 25 C-6.01 23.515 -6.01 23.515 -5 22 C-4.29835358 20.01200182 -3.62627128 18.01301483 -3 16 C-2.34 16 -1.68 16 -1 16 C-0.67 10.72 -0.34 5.44 0 0 Z " fill="#3C70C7" transform="translate(458,79)"/>
<path d="M0 0 C0.66 1.32 1.32 2.64 2 4 C1.01 5.485 1.01 5.485 0 7 C-0.66 7 -1.32 7 -2 7 C-2.226875 7.680625 -2.45375 8.36125 -2.6875 9.0625 C-4.35572357 12.79614324 -6.55729608 15.72163421 -9 19 C-9 15.80971469 -8.57516922 14.88744656 -7.03125 12.20703125 C-6.62519531 11.49482422 -6.21914062 10.78261719 -5.80078125 10.04882812 C-5.37152344 9.31083984 -4.94226563 8.57285156 -4.5 7.8125 C-4.07074219 7.06291016 -3.64148438 6.31332031 -3.19921875 5.54101562 C-2.13853779 3.69071661 -1.07001077 1.84491937 0 0 Z " fill="#3E72C5" transform="translate(212,346)"/>
<path d="M0 0 C0.66 0.99 1.32 1.98 2 3 C1.63648438 3.47308594 1.27296875 3.94617188 0.8984375 4.43359375 C-2.94631857 9.49092673 -6.52778985 14.68086955 -10 20 C-10 16.6998249 -9.47229985 15.7476985 -7.8125 12.98828125 C-7.36132812 12.23095703 -6.91015625 11.47363281 -6.4453125 10.69335938 C-5.96835937 9.90767578 -5.49140625 9.12199219 -5 8.3125 C-4.52304687 7.51521484 -4.04609375 6.71792969 -3.5546875 5.89648438 C-2.37559607 3.92740169 -1.19053997 1.96217452 0 0 Z " fill="#4674C0" transform="translate(381,128)"/>
<path d="M0 0 C2.99876322 2.80319171 5.16322727 5.59434917 7.25 9.125 C7.77078125 9.99382812 8.2915625 10.86265625 8.828125 11.7578125 C10 14 10 14 10 16 C7 15 7 15 5.9375 13.29296875 C5.628125 12.59816406 5.31875 11.90335937 5 11.1875 C3.87366152 8.76154019 2.87386905 6.83332696 1.25 4.6875 C0 3 0 3 0 0 Z " fill="#4D78BF" transform="translate(249,284)"/>
<path d="M0 0 C0.33 0.99 0.66 1.98 1 3 C0.05988318 4.70116376 -0.94895617 6.36504293 -2 8 C-2.4640625 9.3303125 -2.4640625 9.3303125 -2.9375 10.6875 C-4.22303042 13.48541916 -5.26623814 13.79051748 -8 15 C-2.81321185 4.44191344 -2.81321185 4.44191344 0 0 Z " fill="#4C78C3" transform="translate(336,204)"/>
<path d="M0 0 C0.66 0.33 1.32 0.66 2 1 C-1.61328125 5.6875 -1.61328125 5.6875 -3 7 C-3.99 7 -4.98 7 -6 7 C-6 7.66 -6 8.32 -6 9 C-6.66 9 -7.32 9 -8 9 C-6.4169423 4.7257442 -3.49431596 2.73468206 0 0 Z " fill="#4072CC" transform="translate(82,68)"/>
<path d="M0 0 C0.84119973 2.39957614 1.11193544 3.64922558 0.328125 6.10546875 C-0.02765625 6.79253906 -0.3834375 7.47960937 -0.75 8.1875 C-1.26820313 9.22970703 -1.26820313 9.22970703 -1.796875 10.29296875 C-3 12 -3 12 -6 13 C-4.58707905 8.1725201 -2.57025846 4.2837641 0 0 Z " fill="#3369C4" transform="translate(317,236)"/>
<path d="M0 0 C0.66 0 1.32 0 2 0 C2.33 0.99 2.66 1.98 3 3 C2.360625 3.268125 1.72125 3.53625 1.0625 3.8125 C-1.33131686 4.88667752 -1.33131686 4.88667752 -2 8 C-2.66 7.67 -3.32 7.34 -4 7 C-2.68 4.69 -1.36 2.38 0 0 Z " fill="#376EC9" transform="translate(299,267)"/>
<path d="M0 0 C0.99 0 1.98 0 3 0 C1.66511872 3.59391114 0.03977277 6.75490696 -2 10 C-3.24546405 7.50907189 -2.7767578 6.58919267 -2 4 C-1.34 4 -0.68 4 0 4 C0 2.68 0 1.36 0 0 Z " fill="#4272C5" transform="translate(369,241)"/>
<path d="M0 0 C0.66 0 1.32 0 2 0 C6.42857143 7.28571429 6.42857143 7.28571429 7 12 C3.95950199 8.35140239 2.03481238 4.2555467 0 0 Z " fill="#3165BF" transform="translate(109,157)"/>
<path d="M0 0 C0.66 0.33 1.32 0.66 2 1 C-0.475 5.455 -0.475 5.455 -3 10 C-4.04449911 6.86650268 -3.93423645 6.01031744 -3 3 C-2.34 3 -1.68 3 -1 3 C-0.67 2.01 -0.34 1.02 0 0 Z " fill="#386DC3" transform="translate(310,344)"/>
<path d="M0 0 C0.66 0 1.32 0 2 0 C0.8141763 3.37503669 -0.27573689 5.64722731 -3 8 C-3 4.40142046 -2.04169485 2.90548882 0 0 Z " fill="#DEEFF8" transform="translate(346,184)"/>
<path d="M0 0 C0.99 0 1.98 0 3 0 C1.7508258 3.45925163 0.32472205 6.14693203 -2 9 C-1.34 6.03 -0.68 3.06 0 0 Z " fill="#4977C7" transform="translate(422,151)"/>
<path d="M0 0 C0.33 0.99 0.66 1.98 1 3 C-0.9375 6.1875 -0.9375 6.1875 -3 9 C-3.66 8.67 -4.32 8.34 -5 8 C-3.35 5.36 -1.7 2.72 0 0 Z " fill="#D7EBF6" transform="translate(457,97)"/>
</svg>
